/* XPM */
static char * wall_xpm[] = {
"64 64 563 2",
"  	c #092004",
". 	c #4C6571",
"+ 	c #276A00",
"@ 	c #3D503D",
"# 	c #465B65",
"$ 	c #2F5E2F",
"% 	c #0D1E0C",
"& 	c #495E66",
"* 	c #4D6469",
"= 	c #556A70",
"- 	c #41575D",
"; 	c #4A6065",
"> 	c #202F32",
", 	c #243439",
"' 	c #485E65",
") 	c #50666D",
"! 	c #53686E",
"~ 	c #2E3F43",
"{ 	c #597077",
"] 	c #586F75",
"^ 	c #4A6166",
"/ 	c #4F666B",
"( 	c #52696F",
"_ 	c #697F85",
": 	c #304246",
"< 	c #283A40",
"[ 	c #526A6D",
"} 	c #556A6D",
"| 	c #32454B",
"1 	c #364B4F",
"2 	c #5D6F7F",
"3 	c #5C747A",
"4 	c #33454E",
"5 	c #0C1E0C",
"6 	c #32443C",
"7 	c #42900E",
"8 	c #0D1716",
"9 	c #0F1E18",
"0 	c #1E4E0D",
"a 	c #13211F",
"b 	c #182326",
"c 	c #1D2B2E",
"d 	c #1A262B",
"e 	c #1C2A2C",
"f 	c #50656D",
"g 	c #5E767C",
"h 	c #182324",
"i 	c #25363C",
"j 	c #243538",
"k 	c #314446",
"l 	c #2B3D43",
"m 	c #24343A",
"n 	c #2A3C41",
"o 	c #223237",
"p 	c #223236",
"q 	c #26373C",
"r 	c #24353B",
"s 	c #3E565B",
"t 	c #0E1415",
"u 	c #255B10",
"v 	c #2B3C41",
"w 	c #223234",
"x 	c #273743",
"y 	c #102211",
"z 	c #080B08",
"A 	c #141E22",
"B 	c #1C292E",
"C 	c #213036",
"D 	c #1F3037",
"E 	c #1F6B05",
"F 	c #1F2D33",
"G 	c #2D4044",
"H 	c #101719",
"I 	c #3C5358",
"J 	c #223138",
"K 	c #283A3F",
"L 	c #2E4245",
"M 	c #32464A",
"N 	c #25363B",
"O 	c #2D4045",
"P 	c #1C2B2F",
"Q 	c #2E4345",
"R 	c #1E2D33",
"S 	c #2A3C40",
"T 	c #2F4548",
"U 	c #304549",
"V 	c #243539",
"W 	c #22363A",
"X 	c #225F06",
"Y 	c #233338",
"Z 	c #070C0C",
"` 	c #1F2B30",
" .	c #131C1C",
"..	c #25353A",
"+.	c #2D3F45",
"@.	c #121C1D",
"#.	c #26373D",
"$.	c #213137",
"%.	c #0A0E0E",
"&.	c #11191B",
"*.	c #1F2E31",
"=.	c #0E1518",
"-.	c #2E4147",
";.	c #2E4144",
">.	c #27393E",
",.	c #2D4145",
"'.	c #2B3E44",
").	c #283B3F",
"!.	c #24363D",
"~.	c #2A3C3E",
"{.	c #2B3E42",
"].	c #2B3E41",
"^.	c #1F2F33",
"/.	c #172126",
"(.	c #293B3F",
"_.	c #2E4247",
":.	c #1F2D30",
"<.	c #28373E",
"[.	c #365C0B",
"}.	c #276800",
"|.	c #202F36",
"1.	c #1D2B2F",
"2.	c #1B282C",
"3.	c #1E2B30",
"4.	c #2B3D41",
"5.	c #24353A",
"6.	c #1E2C31",
"7.	c #1D2A30",
"8.	c #26383D",
"9.	c #162125",
"0.	c #33474E",
"a.	c #1E2D32",
"b.	c #384D50",
"c.	c #31454A",
"d.	c #283B40",
"e.	c #1F2E32",
"f.	c #2A3B41",
"g.	c #223238",
"h.	c #1F2E33",
"i.	c #1F2D31",
"j.	c #1F2D32",
"k.	c #162126",
"l.	c #182327",
"m.	c #24363C",
"n.	c #182628",
"o.	c #23383D",
"p.	c #1F2C36",
"q.	c #162023",
"r.	c #192529",
"s.	c #1C2A2F",
"t.	c #192429",
"u.	c #0B1012",
"v.	c #2C3E44",
"w.	c #0D1416",
"x.	c #33484C",
"y.	c #27383E",
"z.	c #182428",
"A.	c #1F2D2F",
"B.	c #1F2E30",
"C.	c #1C2A2E",
"D.	c #273A3F",
"E.	c #213136",
"F.	c #2B3E43",
"G.	c #293B40",
"H.	c #243238",
"I.	c #1E2D31",
"J.	c #2B680E",
"K.	c #162527",
"L.	c #1B282E",
"M.	c #1F2C2E",
"N.	c #1A2629",
"O.	c #1C282C",
"P.	c #1A282C",
"Q.	c #213132",
"R.	c #1E2B2F",
"S.	c #1E2B2E",
"T.	c #0D1317",
"U.	c #010101",
"V.	c #1C282A",
"W.	c #060708",
"X.	c #050608",
"Y.	c #425A5E",
"Z.	c #243438",
"`.	c #2C3E42",
" +	c #32474A",
".+	c #1E2C2F",
"++	c #202F33",
"@+	c #233439",
"#+	c #27393F",
"$+	c #182425",
"%+	c #162122",
"&+	c #131C1F",
"*+	c #1A272A",
"=+	c #1E2C30",
"-+	c #1C292F",
";+	c #1D2A2F",
">+	c #0C1213",
",+	c #2C3E43",
"'+	c #233339",
")+	c #223338",
"!+	c #1A2529",
"~+	c #1C2B2E",
"{+	c #10181C",
"]+	c #131C20",
"^+	c #11181D",
"/+	c #283A3E",
"(+	c #1B272C",
"_+	c #1F2C30",
":+	c #213138",
"<+	c #162021",
"[+	c #2B3C42",
"}+	c #202F34",
"|+	c #141E1F",
"1+	c #182427",
"2+	c #24363A",
"3+	c #151E21",
"4+	c #1A2627",
"5+	c #243436",
"6+	c #213134",
"7+	c #162123",
"8+	c #202F31",
"9+	c #1C2A30",
"0+	c #19252A",
"a+	c #1C292B",
"b+	c #111A1E",
"c+	c #26383C",
"d+	c #172224",
"e+	c #141D20",
"f+	c #040905",
"g+	c #0A0E10",
"h+	c #0C1113",
"i+	c #111A1D",
"j+	c #1A2528",
"k+	c #040708",
"l+	c #0F1618",
"m+	c #0C1115",
"n+	c #101619",
"o+	c #0D1314",
"p+	c #080D0F",
"q+	c #010000",
"r+	c #0D1316",
"s+	c #0C1214",
"t+	c #0A0E0F",
"u+	c #090D0E",
"v+	c #0F1719",
"w+	c #0A0F11",
"x+	c #0A0F10",
"y+	c #2E4145",
"z+	c #080B0E",
"A+	c #596F76",
"B+	c #50656C",
"C+	c #50666A",
"D+	c #576C73",
"E+	c #2D3F43",
"F+	c #586F73",
"G+	c #6A7E82",
"H+	c #597175",
"I+	c #5F767A",
"J+	c #667C7F",
"K+	c #33494D",
"L+	c #040608",
"M+	c #586E73",
"N+	c #576D73",
"O+	c #485F64",
"P+	c #42595D",
"Q+	c #4C6267",
"R+	c #445A5D",
"S+	c #475D5F",
"T+	c #000000",
"U+	c #0F1617",
"V+	c #111919",
"W+	c #5F777A",
"X+	c #708689",
"Y+	c #586E74",
"Z+	c #556B6F",
"`+	c #223032",
" @	c #546970",
".@	c #475E61",
"+@	c #52676C",
"@@	c #384D51",
"#@	c #2C4143",
"$@	c #304449",
"%@	c #202D31",
"&@	c #25373C",
"*@	c #24363B",
"=@	c #556C73",
"-@	c #5A7176",
";@	c #25373A",
">@	c #5A7276",
",@	c #27383C",
"'@	c #3B5056",
")@	c #2C4044",
"!@	c #2B3F42",
"~@	c #2A3D40",
"{@	c #111B1E",
"]@	c #314447",
"^@	c #596F74",
"/@	c #2F4348",
"(@	c #2D4146",
"_@	c #31464C",
":@	c #212F36",
"<@	c #2B3E40",
"[@	c #3D5457",
"}@	c #3A4F55",
"|@	c #000001",
"1@	c #25363A",
"2@	c #27373D",
"3@	c #26383B",
"4@	c #0D1418",
"5@	c #3C5056",
"6@	c #25353C",
"7@	c #27393C",
"8@	c #223136",
"9@	c #182329",
"0@	c #2A3C42",
"a@	c #020203",
"b@	c #34484D",
"c@	c #121A1D",
"d@	c #121C1F",
"e@	c #293C40",
"f@	c #27373B",
"g@	c #27373A",
"h@	c #172123",
"i@	c #11181B",
"j@	c #0B1214",
"k@	c #435860",
"l@	c #283B3E",
"m@	c #2D4144",
"n@	c #314649",
"o@	c #384F51",
"p@	c #475F63",
"q@	c #27383D",
"r@	c #26363C",
"s@	c #203033",
"t@	c #182226",
"u@	c #27373C",
"v@	c #0F1517",
"w@	c #1A252A",
"x@	c #364B4C",
"y@	c #25373B",
"z@	c #2F4246",
"A@	c #25353B",
"B@	c #020102",
"C@	c #293C41",
"D@	c #1C292D",
"E@	c #161F23",
"F@	c #192527",
"G@	c #0D1417",
"H@	c #43585F",
"I@	c #405559",
"J@	c #445C60",
"K@	c #182126",
"L@	c #2E4246",
"M@	c #37484D",
"N@	c #0E1516",
"O@	c #33494C",
"P@	c #384C52",
"Q@	c #2B3D42",
"R@	c #2F4549",
"S@	c #374D53",
"T@	c #0C1414",
"U@	c #576F70",
"V@	c #3C5258",
"W@	c #182526",
"X@	c #12191A",
"Y@	c #2D4043",
"Z@	c #0C1216",
"`@	c #394F54",
" #	c #26373B",
".#	c #223337",
"+#	c #293A3F",
"@#	c #243339",
"##	c #192428",
"$#	c #243639",
"%#	c #1A262A",
"&#	c #2F4347",
"*#	c #161F24",
"=#	c #213034",
"-#	c #233238",
";#	c #202E33",
">#	c #1C292C",
",#	c #213033",
"'#	c #0C1417",
")#	c #465B61",
"!#	c #182328",
"~#	c #202E34",
"{#	c #161E22",
"]#	c #1F2C31",
"^#	c #11191A",
"/#	c #10171A",
"(#	c #1D2B30",
"_#	c #0A1011",
":#	c #26373A",
"<#	c #293B3E",
"[#	c #151F21",
"}#	c #0D1215",
"|#	c #26363D",
"1#	c #172127",
"2#	c #1A242A",
"3#	c #2C3F44",
"4#	c #1F2A2F",
"5#	c #161F22",
"6#	c #131E20",
"7#	c #223239",
"8#	c #304447",
"9#	c #1A262C",
"0#	c #151E22",
"a#	c #1A252B",
"b#	c #0F1619",
"c#	c #3A4F54",
"d#	c #172225",
"e#	c #020303",
"f#	c #19262A",
"g#	c #182429",
"h#	c #2B3D40",
"i#	c #030302",
"j#	c #141D1F",
"k#	c #141F23",
"l#	c #0A0F12",
"m#	c #35494F",
"n#	c #162024",
"o#	c #121B1E",
"p#	c #0A0E12",
"q#	c #121A1C",
"r#	c #162124",
"s#	c #172124",
"t#	c #192427",
"u#	c #1D2A2D",
"v#	c #0A1013",
"w#	c #1A272B",
"x#	c #1A272C",
"y#	c #010100",
"z#	c #4B6168",
"A#	c #4D656A",
"B#	c #4F676C",
"C#	c #030304",
"D#	c #576C71",
"E#	c #4E6468",
"F#	c #384C51",
"G#	c #435A5F",
"H#	c #4E6569",
"I#	c #496066",
"J#	c #495E64",
"K#	c #1E2C2E",
"L#	c #11191D",
"M#	c #11181E",
"N#	c #4C6269",
"O#	c #496065",
"P#	c #192328",
"Q#	c #2E4146",
"R#	c #53696F",
"S#	c #576C74",
"T#	c #486064",
"U#	c #26373F",
"V#	c #546C6F",
"W#	c #040505",
"X#	c #3F5459",
"Y#	c #384C4F",
"Z#	c #26363B",
"`#	c #0C1314",
" $	c #596E74",
".$	c #445A61",
"+$	c #526A6F",
"@$	c #4B6468",
"#$	c #0C1012",
"$$	c #23333A",
"%$	c #24373B",
"&$	c #398500",
"*$	c #111A1C",
"=$	c #475E63",
"-$	c #0E1617",
";$	c #3F5458",
">$	c #203034",
",$	c #475D64",
"'$	c #3F5658",
")$	c #2A3B40",
"!$	c #040503",
"~$	c #364B50",
"{$	c #101819",
"]$	c #1A2428",
"^$	c #2F4346",
"/$	c #2B4043",
"($	c #030506",
"_$	c #10191B",
":$	c #546C71",
"<$	c #465B5F",
"[$	c #304448",
"}$	c #1B282B",
"|$	c #40565B",
"1$	c #2C3F45",
"2$	c #1C282E",
"3$	c #2B3F41",
"4$	c #1B282D",
"5$	c #1F2E34",
"6$	c #070B0C",
"7$	c #060808",
"8$	c #2C4146",
"9$	c #182426",
"0$	c #576E73",
"a$	c #34494E",
"b$	c #283B3D",
"c$	c #12191C",
"d$	c #040607",
"e$	c #040509",
"f$	c #364D51",
"g$	c #1C272B",
"h$	c #2F4447",
"i$	c #233239",
"j$	c #090C0D",
"k$	c #090E10",
"l$	c #475E64",
"m$	c #314549",
"n$	c #364C50",
"o$	c #131D21",
"p$	c #0A1014",
"q$	c #3F575A",
"r$	c #344A50",
"s$	c #101818",
"t$	c #10171B",
"u$	c #455D60",
"v$	c #2D4244",
"w$	c #27393B",
"x$	c #10181A",
"y$	c #485E5F",
"z$	c #354A4F",
"A$	c #1A2628",
"B$	c #384E50",
"C$	c #131B1E",
"D$	c #40575B",
"E$	c #3C5257",
"F$	c #314548",
"G$	c #111B1F",
"H$	c #374C50",
"I$	c #212F34",
"J$	c #233237",
"K$	c #0C1215",
"L$	c #3A5055",
"M$	c #010402",
"N$	c #24343B",
"O$	c #141E20",
"P$	c #010102",
"Q$	c #040A0A",
"R$	c #395055",
"S$	c #223339",
"T$	c #19242A",
"U$	c #1C2B30",
"V$	c #0C1316",
"W$	c #1B2729",
"X$	c #0E1517",
"Y$	c #162022",
"Z$	c #2E4046",
"`$	c #212F33",
" %	c #1F2E2F",
".%	c #030C00",
"+%	c #1E2B31",
"@%	c #1E2C2C",
"#%	c #080D0E",
"$%	c #151D21",
"%%	c #253538",
"&%	c #1B272D",
"*%	c #152021",
"=%	c #202D32",
"-%	c #131C1E",
"    . . + + + @ @ # # $ $ % % & & * * = = - - ; ; > > , ' ' ) ) ! ! ~ ~ { { { { ] ] ^ ^ / ( ( _ _ : : < < [ [ } } | | 1 2 2 3 3 ",
"    . . + + + @ @ # # $ $ % % & & * * = = - - ; ; > > , ' ' ) ) ! ! ~ ~ { { { { ] ] ^ ^ / ( ( _ _ : : < < [ [ } } | | 1 2 2 3 3 ",
"4 4 5 5 6 6 6 7 7 8 8 9 9 0 0 a a b b c c d d < < e e f g g h h i i j j , , , , k k l l m n n o o p p q q r r s s t t u v v w w ",
"x x w w y y y z z A A B B C C D D E E F F > > G G H H I J J K K L L M M N N N N O O l l P Q Q R R S S T T U U c c V V W X X Y Y ",
"x x w w y y y z z A A B B C C D D E E F F > > G G H H I J J K K L L M M N N N N O O l l P Q Q R R S S T T U U c c V V W X X Y Y ",
"Z Z ` `  . . .....+.+.@.@.#.#.$.$.m m %.%.&.&.*.*.=.=.-.;.;.>.>.,.,.G G '.'.'.'.).).!.!.C ~.~.{.{.].].^.^././.(.(._._.:.<.<.[.[.",
"Z Z ` `  . . .....+.+.@.@.#.#.$.$.m m %.%.&.&.*.*.=.=.-.;.;.>.>.,.,.G G '.'.'.'.).).!.!.C ~.~.{.{.].].^.^././.(.(._._.:.<.<.[.[.",
"}.}.|.|.1.1.1.2.2.3.3.4.4.5.5.i i 6.6.7.7.8.8.C C 9.9.0.a.a.b.b.c.c.B B d.d.d.d.e.e.f.f.g.h.h.i.i.j.j.k.k.].].l.l.4.4.m.n.n.o.o.",
"}.}.|.|.1.1.1.2.2.3.3.4.4.5.5.i i 6.6.7.7.8.8.C C 9.9.0.a.a.b.b.c.c.B B d.d.d.d.e.e.f.f.g.h.h.i.i.j.j.k.k.].].l.l.4.4.m.n.n.o.o.",
"p.p.q.q.o o o k.k.r.r.3.3.s.s.$.$.t.t.s.s.u.u.v.v.w.w.x.y.y.o o z.z.A.A.B.B.B.B.C.C.D.D.e.E.E.j j e.e.^.^.F.F.G.G.H.H.I.B B J.J.",
"p.p.q.q.o o o k.k.r.r.3.3.s.s.$.$.t.t.s.s.u.u.v.v.w.w.x.y.y.o o z.z.A.A.B.B.B.B.C.C.D.D.e.E.E.j j e.e.^.^.F.F.G.G.H.H.I.B B J.J.",
"K.K.L.L.3.3.3.M.M.N.N.O.O.P.P.Q.Q.R.R.S.S.$.$.h.h.T.T.U.V.V.W.W.X.X.Y.Y.........Z.Z.Q Q `.d d c c  + +.+.+7.7.l.l.q q ++e.e.@+@+",
"K.K.L.L.3.3.3.M.M.N.N.O.O.P.P.Q.Q.R.R.S.S.$.$.h.h.T.T.U.V.V.W.W.X.X.Y.Y.........Z.Z.Q Q `.d d c c  + +.+.+7.7.l.l.q q ++e.e.@+@+",
"K.K.L.L.3.3.3.M.M.N.N.O.O.P.P.Q.Q.R.R.S.S.$.$.h.h.T.T.U.V.V.W.W.X.X.Y.Y.........Z.Z.Q Q `.d d c c  + +.+.+7.7.l.l.q q ++e.e.@+@+",
"j.j.#+#+$+$+$+%+%+&+&+z.z.*+*+=+=+-+-+:.:.;+;+1.1.>+>+,+h.h.'+'+)+)+j.j.h.h.h.h.!+!+b b ~+{+{+]+]+^+^+/+/+(+(+{.{.Z.Z._+:+:+<+<+",
"j.j.#+#+$+$+$+%+%+&+&+z.z.*+*+=+=+-+-+:.:.;+;+1.1.>+>+,+h.h.'+'+)+)+j.j.h.h.h.h.!+!+b b ~+{+{+]+]+^+^+/+/+(+(+{.{.Z.Z._+:+:+<+<+",
"[+[+}+}+|+|+|+1+1+2+2+*+*+3+3+*.*.4+4+5+5+6+6+7+7+{+{+8+, , B B 9+9+5.5.o o o o 0+0+b b a+1+1+j.j.h.h./+/+F F B B b+b+c+d+d+e+e+",
"[+[+}+}+|+|+|+1+1+2+2+*+*+3+3+*.*.4+4+5+5+6+6+7+7+{+{+8+, , B B 9+9+5.5.o o o o 0+0+b b a+1+1+j.j.h.h./+/+F F B B b+b+c+d+d+e+e+",
"f+f+g+g+h+h+h+d+d+i+i+j+j+k+k+l+l+m+m+n+n+C.C.o+o+p+p+q+r+r+o+o+s+s+t+t+u+u+u+u+v+v+h+h+w+x+x+u.u.y+y+t+t+h+h+z+z+.+.+h+S.S.x+x+",
"f+f+g+g+h+h+h+d+d+i+i+j+j+k+k+l+l+m+m+n+n+C.C.o+o+p+p+q+r+r+o+o+s+s+t+t+u+u+u+u+v+v+h+h+w+x+x+u.u.y+y+t+t+h+h+z+z+.+.+h+S.S.x+x+",
"A+A+B+B+C+C+C+D+D+E+E+F+F+G+G+H+H+I+I+J+J+K+K+L+L+M+M+N+O+O+P+P+Q+Q+R+R+S+S+S+S+T+T+U+U+V+L L W+W+X+X+Y+Y+Z+Z+`+`+ @ @.@+@+@@@@@",
"A+A+B+B+C+C+C+D+D+E+E+F+F+G+G+H+H+I+I+J+J+K+K+L+L+M+M+N+O+O+P+P+Q+Q+R+R+S+S+S+S+T+T+U+U+V+L L W+W+X+X+Y+Y+Z+Z+`+`+ @ @.@+@+@@@@@",
"#@#@#+#+>.>.>.$@$@V V V V %@%@&@&@*@*@=@=@-@-@;@;@>@>@,@'@'@)@)@K K !@!@~@~@~@~@{@{@]@]@^@* * *@*@/@/@'+'+y.y.(@(@F.F.'+>.>.q q ",
"#@#@#+#+>.>.>.$@$@V V V V %@%@&@&@*@*@=@=@-@-@;@;@>@>@,@'@'@)@)@K K !@!@~@~@~@~@{@{@]@]@^@* * *@*@/@/@'+'+y.y.(@(@F.F.'+>.>.q q ",
"6.6._@_@:@:@:@<@<@Q Q C C #+#+g.g.[@[@}@}@3.3.|@|@5.5./+5.5.1@1@2@2@3@3@h.h.h.h.4@4@5@5@6@7@7@8@8@9@9@0@0@>.>.a@a@b@b@c@, , i.i.",
"6.6._@_@:@:@:@<@<@Q Q C C #+#+g.g.[@[@}@}@3.3.|@|@5.5./+5.5.1@1@2@2@3@3@h.h.h.h.4@4@5@5@6@7@7@8@8@9@9@0@0@>.>.a@a@b@b@c@, , i.i.",
"d@d@y.y.e@e@e@l l /+/+j j j.j.6+6+7@7@Y Y A.A.U.U.j j f@(.(.g@g@d d h@h@i@i@i@i@j@j@k@k@l@m@m@n@n@o@o@6+6+p@p@Z.Z.q@q@, r@r@s@s@",
"d@d@y.y.e@e@e@l l /+/+j j j.j.6+6+7@7@Y Y A.A.U.U.j j f@(.(.g@g@d d h@h@i@i@i@i@j@j@k@k@l@m@m@n@n@o@o@6+6+p@p@Z.Z.q@q@, r@r@s@s@",
"t@t@u@u@v@v@v@d d w@w@x@x@m@m@&@&@y@y@z@z@A@A@B@B@C@C@D@8.8.++++E@E@F@F@d d d d G@G@H@H@I@J@J@K@K@;+;+q q '+'+L@L@M@M@m L L N@N@",
"t@t@u@u@v@v@v@d d w@w@x@x@m@m@&@&@y@y@z@z@A@A@B@B@C@C@D@8.8.++++E@E@F@F@d d d d G@G@H@H@I@J@J@K@K@;+;+q q '+'+L@L@M@M@m L L N@N@",
"O@O@P@P@Q@Q@Q@R@R@>.>.)+)+S@S@> > B.B.T@T@U@U@V@V@W@W@/+X@X@;+;+Y@Y@i.i.Y Y Y Y Z@Z@`@`@ #p p .#.#+#+#&@&@, , q q ,+,+B @#@#E.E.",
"O@O@P@P@Q@Q@Q@R@R@>.>.)+)+S@S@> > B.B.T@T@U@U@V@V@W@W@/+X@X@;+;+Y@Y@i.i.Y Y Y Y Z@Z@`@`@ #p p .#.#+#+#&@&@, , q q ,+,+B @#@#E.E.",
"####$#$#2.2.2.%#%#&#&#*#*#=#=#A.A.U.U.-#-#@#@#, , ,.,.;#,+,+>#>#2.2.,#,#6+6+6+6+'#'#)#)#!#~#~#1.1._+_+{#{#G G ]#]#^#^#/#y.y./+/+",
"####$#$#2.2.2.%#%#&#&#*#*#=#=#A.A.U.U.-#-#@#@#, , ,.,.;#,+,+>#>#2.2.,#,#6+6+6+6+'#'#)#)#!#~#~#1.1._+_+{#{#G G ]#]#^#^#/#y.y./+/+",
"7+7+{.{.m m m r r (#(#N N }+}+_#_#;#;#g.g.:#:#e.e.o o ~#N N %#%#<#<#O.O.F F F F w.w.T+T+[#}#}#|#|#@#@#1#1#N.N.2#2#3#3#++4#4#8@8@",
"5#5#q.q.6#6#6#:+:+c+c+r r n+n+7#7#8#8#9#9#j.j.7#7#j.j.0#t@t@6+6+a#a#o o K K K K b#b#c#c#l d#d#e#e#<@<@Q Q f#f#!#!#I.I.j w@w@j.j.",
"5#5#q.q.6#6#6#:+:+c+c+r r n+n+7#7#8#8#9#9#j.j.7#7#j.j.0#t@t@6+6+a#a#o o K K K K b#b#c#c#l d#d#e#e#<@<@Q Q f#f#!#!#I.I.j w@w@j.j.",
"c c g#g#h#h#h#i#i#j+j+j#j#/./.=#=#o o y@y@h.h.%#%#d d =#z.z.k#k#u@u@Z.Z.5.5.5.5.l#l#m#m#n#U.U.:@:@)+)+N.N.o#o#p#p#'+'+*.q#q#m m ",
"c c g#g#h#h#h#i#i#j+j+j#j#/./.=#=#o o y@y@h.h.%#%#d d =#z.z.k#k#u@u@Z.Z.5.5.5.5.l#l#m#m#n#U.U.:@:@)+)+N.N.o#o#p#p#'+'+*.q#q#m m ",
"S.S.r.r.s.s.s.0#0#r#r#s#s#A.A.t#t#c c a+a+g#g#-#-#1.1.,#N.N.u#u#++++;#;#*+*+*+*+v#v#q+q+p U.U.:.:.w#w#e.e.i.i.i.i.d+d+A@~#~#x#x#",
"S.S.r.r.s.s.s.0#0#r#r#s#s#A.A.t#t#c c a+a+g#g#-#-#1.1.,#N.N.u#u#++++;#;#*+*+*+*+v#v#q+q+p U.U.:.:.w#w#e.e.i.i.i.i.d+d+A@~#~#x#x#",
"q+q+q+q+T+T+T+y#y#y#y#T+T+T+T+q+q+T+T+T+T+T+T+T+T+q+q+T+T+T+T+T+T+T+T+T+T+T+T+T+T+T+T+T+T+q+q+T+T+q+q+T+T+T+T+T+T+T+T+T+q+q+T+T+",
"q+q+q+q+T+T+T+y#y#y#y#T+T+T+T+q+q+T+T+T+T+T+T+T+T+q+q+T+T+T+T+T+T+T+T+T+T+T+T+T+T+T+T+T+T+q+q+T+T+q+q+T+T+T+T+T+T+T+T+T+q+q+T+T+",
"1+1+k@k@z#z#z#A#A#B#B#C#C#D#D#E#E#F#F#G#G#H#H#I#I#J#J#K#L#L#M#M#N#N#7@7@i.i.i.i.O#O#q q , +#+#P#P#Q#Q#R#R#S#S#T#T#U#U#Y V#V#W#W#",
"1+1+k@k@z#z#z#A#A#B#B#C#C#D#D#E#E#F#F#G#G#H#H#I#I#J#J#K#L#L#M#M#N#N#7@7@i.i.i.i.O#O#q q , +#+#P#P#Q#Q#R#R#S#S#T#T#U#U#Y V#V#W#W#",
"1+1+k@k@z#z#z#A#A#B#B#C#C#D#D#E#E#F#F#G#G#H#H#I#I#J#J#K#L#L#M#M#N#N#7@7@i.i.i.i.O#O#q q , +#+#P#P#Q#Q#R#R#S#S#T#T#U#U#Y V#V#W#W#",
"1+1+k@k@z#z#z#A#A#B#B#C#C#D#D#E#E#F#F#G#G#H#H#I#I#J#J#K#L#L#M#M#N#N#7@7@i.i.i.i.O#O#q q , +#+#P#P#Q#Q#R#R#S#S#T#T#U#U#Y V#V#W#W#",
"n#n#X#X#]+]+]+)@)@K K Y#Y#X#X#9.9.Z#Z#_._._+_+r@r@d d j.`#`# $ ${.{..$.$+$+$+$+$y+y+@$@$#$$$$$o o }#}#m m ~#~#e.e.{@{@x.%$%$&$&$",
"n#n#X#X#]+]+]+)@)@K K Y#Y#X#X#9.9.Z#Z#_._._+_+r@r@d d j.`#`# $ ${.{..$.$+$+$+$+$y+y+@$@$#$$$$$o o }#}#m m ~#~#e.e.{@{@x.%$%$&$&$",
"*$*$=$=$}+}+}+o o -$-$;$;$j.j.d.d.5#5#P P >$>$!#!#{.{.r l+l+,$,$'$'$&#&#i.i.i.i.)$)$}+}+>.!$!$~$~${${$>#>#]$]$^$^$q@q@/$r.r.($($",
"*$*$=$=$}+}+}+o o -$-$;$;$j.j.d.d.5#5#P P >$>$!#!#{.{.r l+l+,$,$'$'$&#&#i.i.i.i.)$)$}+}+>.!$!$~$~${${$>#>#]$]$^$^$q@q@/$r.r.($($",
"_$_$:$:$=+=+=+C C <$<$E.E.d.d.Y Y [$[$=#=#8@8@>.>.1+1+}$E.E.|$|$1$1$2$2$3$3$3$3$=#=#1.1.4$D@D@5$5$++++j.j.[+[+1.1.B B 5.q@q@T+T+",
"6$6$j j i.i.i.7$7$>#>#6+6+j.j.1+1+x#x#C C N N !.!.8$8$9$e#e#0$0$a$a$r.r.F.F.F.F.!#!#7@7@p t.t.b$b$5$5$4.4.n n c$c$s.s.6.'+'+U.U.",
"6$6$j j i.i.i.7$7$>#>#6+6+j.j.1+1+x#x#C C N N !.!.8$8$9$e#e#0$0$a$a$r.r.F.F.F.F.!#!#7@7@p t.t.b$b$5$5$4.4.n n c$c$s.s.6.'+'+U.U.",
"d$d$e$e$f$f$f$g$g$h$h$;#;#i$i$>$>$e.e.V V :#:#++++j$j$w#k$k$l$l$r r }$}${.{.{.{.~$~$m$m$D.n$n$o$o$p$p$'+'+q$q$j.j.r$r$s$l.l.U.U.",
"d$d$e$e$f$f$f$g$g$h$h$;#;#i$i$>$>$e.e.V V :#:#++++j$j$w#k$k$l$l$r r }$}${.{.{.{.~$~$m$m$D.n$n$o$o$p$p$'+'+q$q$j.j.r$r$s$l.l.U.U.",
"t$t$u$u$5.5.5.].].V V =+=+v$v$w$w$o o x$x$y$y$7$7$e.e.g#s+s+z$z$M M A$A$B$B$B$B$F@F@C$C$6.@#@#j$j$D$D$E$E$1.1.2.2.x#x#F$n#n#U.U.",
"t$t$u$u$5.5.5.].].V V =+=+v$v$w$w$o o x$x$y$y$7$7$e.e.g#s+s+z$z$M M A$A$B$B$B$B$F@F@C$C$6.@#@#j$j$D$D$E$E$1.1.2.2.x#x#F$n#n#U.U.",
"G$G$H$H$I$I$I$q.q.3.3.1+1+J$J$$.$.y@y@z.z.}$}$C C a+a+a#K$K$L$L$#+#+=#=#1@1@1@1@5#5#(.(.e.r r M$M$I.I.N$N$O$O$y.y.++++'+G.G.P$P$",
"G$G$H$H$I$I$I$q.q.3.3.1+1+J$J$$.$.y@y@z.z.}$}$C C a+a+a#K$K$L$L$#+#+=#=#1@1@1@1@5#5#(.(.e.r r M$M$I.I.N$N$O$O$y.y.++++'+G.G.P$P$",
"Q$Q$R$R$N N N n#n#8@8@a+a+=#=#!#!#S$S$i.i.T$T$U$U$r.r.i+V$V$8@8@i.i.W$W$X$X$X$X$< < Y$Y$f@m m Z$Z$*$*$Z.Z.]#]#`$`$ % %}$U+U+U.U.",
"Q$Q$R$R$N N N n#n#8@8@a+a+=#=#!#!#S$S$i.i.T$T$U$U$r.r.i+V$V$8@8@i.i.W$W$X$X$X$X$< < Y$Y$f@m m Z$Z$*$*$Z.Z.]#]#`$`$ % %}$U+U+U.U.",
".%.%!+!+A$A$A$j j >#>#3.3.8+8++%+%c c b b 1.1./#/#@%@%]#=.=.#%#%g.g.6+6+(#(#(#(#$%$%a#a#7.>#>#%%%%w#w#_+_+&%&%*%*%K#K#=%-%-%q+q+",
".%.%!+!+A$A$A$j j >#>#3.3.8+8++%+%c c b b 1.1./#/#@%@%]#=.=.#%#%g.g.6+6+(#(#(#(#$%$%a#a#7.>#>#%%%%w#w#_+_+&%&%*%*%K#K#=%-%-%q+q+"};
